# xmcd
#
# Track frame offsets: 
#        150
#        16949
#        31925
#        41980
#        55121
#        75567
#        95281
#        112452
#        127071
#        143596
#        162793
#        176933
#        197829
#        212278
#        232907
#        252399
#
# Disc length: 3652 seconds
#
# Revision: 0
# Processed by: cddbd v1.5.2PL0 Copyright (c) Steve Scherf et al.
# Submitted via: ExactAudioCopyFreeDBPlugin 1.0
#
DISCID=d90e4210
DTITLE=Various Artist - Trembling Earth
DYEAR=2016
DGENRE=Ska
TTITLE0=Victorian Trout Conspiracy - All My Days
TTITLE1=Esperanza - One Man Down
TTITLE2=The Newtown Grunts - Thrown Away
TTITLE3=Big Fat Panda - Nobody There
TTITLE4=Sea Bass Kid - Ginger Stare
TTITLE5=The Cut Throat Razors - Freedom
TTITLE6=The Skarsoles - Skaramanga
TTITLE7=Capone and The Bullets - I Don't Feel
TTITLE8=Root System - It's Up To Me It's Up To You
TTITLE9=Big Hand - Rock the Boat
TTITLE10=Urang Matang - Down a Hole
TTITLE11=Bombskare - Do All Dogs Go to Heaven?
TTITLE12=The Amphetameanies - Arizona Highway Patrol
TTITLE13=Capone and The Bullets - Girl
TTITLE14=Esperanza - Mr Rude
TTITLE15=Joe Viterbo - I F***** Telt You
EXTD=
EXTT0=
EXTT1=
EXTT2=
EXTT3=
EXTT4=
EXTT5=
EXTT6=
EXTT7=
EXTT8=
EXTT9=
EXTT10=
EXTT11=
EXTT12=
EXTT13=
EXTT14=
EXTT15=
PLAYORDER=
